<?xml version="1.0" standalone="no"?>
<!DOCTYPE svg PUBLIC "-//W3C//DTD SVG 20010904//EN"
 "http://www.w3.org/TR/2001/REC-SVG-20010904/DTD/svg10.dtd">
<svg version="1.0" xmlns="http://www.w3.org/2000/svg"
 width="385.000000pt" height="269.000000pt" viewBox="0 0 385.000000 269.000000"
 preserveAspectRatio="xMidYMid meet">

<g transform="translate(0.000000,269.000000) scale(0.100000,-0.100000)"
fill="#000000" stroke="none">
<path d="M2200 2570 c0 -77 3 -75 -77 -70 -66 3 -73 -4 -73 -81 l0 -69 -70 0
-70 0 0 -70 0 -69 -72 -3 -73 -3 -3 -72 -3 -73 -64 0 -64 0 -3 -67 -3 -68
-142 -3 -142 -3 -3 -72 -3 -72 -72 -3 -73 -3 0 -64 0 -65 -70 0 -70 0 0 -290
0 -291 -72 3 -73 3 -3 67 -3 68 -354 0 -355 0 0 -70 0 -70 -70 0 -69 0 -3
-211 c-2 -116 0 -213 4 -216 12 -7 405 -6 417 2 6 3 11 35 11 71 l0 64 210 0
210 0 0 -64 c0 -36 5 -68 10 -71 6 -4 98 -6 205 -6 107 0 202 -2 210 -5 11 -5
15 -23 15 -75 l0 -69 145 0 145 0 0 -67 0 -68 917 2 c505 2 924 3 931 3 8 0
12 20 12 65 l0 65 70 0 70 0 0 70 c0 79 -1 77 95 82 l50 3 0 355 0 355 -72 3
-73 3 -2 572 -3 572 -65 1 -65 1 -3 72 -3 71 -68 0 c-80 0 -81 -2 -81 -90 l0
-59 -67 -3 -68 -3 -3 -67 -3 -68 -69 0 -69 0 -6 -32 c-3 -18 -5 -49 -3 -68 l3
-35 -67 -3 -67 -3 -3 -72 -3 -72 -142 -3 -143 -3 0 76 0 75 -70 0 -70 0 0 135
c0 126 -1 135 -21 146 -12 6 -36 8 -55 4 -65 -12 -74 -2 -74 76 l0 69 -70 0
-70 0 0 -70z m140 -365 l0 -145 -70 0 -69 0 -3 -67 -3 -68 -140 0 -140 0 -3
68 -3 67 70 0 70 0 3 73 3 72 60 2 c33 1 66 2 73 2 8 1 12 22 12 71 l0 70 70
0 70 0 0 -145z m1150 -70 l0 -215 -69 0 c-79 0 -81 2 -81 86 l0 54 -65 0 c-74
0 -78 5 -72 95 l3 50 67 3 67 3 0 54 c0 83 2 85 81 85 l69 0 0 -215z m-1006
-1091 c10 -27 6 -110 -6 -122 -13 -13 -381 -18 -412 -6 -12 5 -16 21 -16 68 0
35 3 66 7 69 3 4 100 7 214 7 179 0 208 -2 213 -16z m1006 -53 c0 -54 -4 -70
-16 -75 -9 -3 -103 -6 -209 -6 -167 0 -194 2 -199 16 -8 21 -8 119 1 127 3 4
100 7 215 7 l208 0 0 -69z"/>
</g>
</svg>
