<?xml version="1.0" standalone="no"?>
<!DOCTYPE svg PUBLIC "-//W3C//DTD SVG 20010904//EN"
 "http://www.w3.org/TR/2001/REC-SVG-20010904/DTD/svg10.dtd">
<svg version="1.0" xmlns="http://www.w3.org/2000/svg"
 width="200.000000pt" height="200.000000pt" viewBox="0 0 200.000000 200.000000"
 preserveAspectRatio="xMidYMid meet">

<g transform="translate(0.000000,200.000000) scale(0.100000,-0.100000)"
fill="#000000" stroke="none">
<path d="M0 1000 l0 -1000 1000 0 1000 0 0 1000 0 1000 -1000 0 -1000 0 0
-1000z m1098 478 c63 -19 122 -87 122 -140 0 -16 -10 -29 -34 -42 -42 -23
-143 -122 -164 -161 -23 -45 -27 -13 -7 61 15 57 20 64 42 64 36 0 26 32 -15
42 -17 5 -32 13 -32 19 0 7 -9 9 -21 6 -15 -4 -19 -1 -17 11 2 9 14 19 27 22
23 5 42 29 24 31 -29 2 -47 10 -64 25 -25 22 -50 5 -30 -20 10 -12 10 -26 1
-69 -12 -51 -14 -53 -41 -49 -16 2 -34 10 -40 18 -15 18 -39 18 -39 1 0 -8 9
-22 20 -32 12 -10 20 -31 20 -49 1 -17 9 -55 19 -83 34 -98 -10 -48 -53 61
-38 94 -43 161 -17 203 53 84 178 118 299 81z m-362 -186 c6 -4 14 -22 17 -41
11 -52 71 -171 111 -217 19 -23 52 -49 73 -59 l37 -18 -30 -24 c-47 -38 -147
-64 -247 -64 -100 0 -137 15 -174 70 -85 126 24 361 167 361 19 0 40 -4 46 -8z
m254 -7 c6 -8 8 -19 5 -26 -4 -6 -13 -35 -20 -63 l-13 -51 -1 78 c-1 76 5 90
29 62z m391 -5 c48 -25 94 -87 114 -153 25 -84 14 -152 -32 -208 -42 -49 -60
-51 -112 -11 -26 19 -80 51 -121 70 -63 30 -86 36 -146 36 l-71 1 8 28 c32
111 195 257 287 257 18 0 51 -9 73 -20z m-447 -173 c9 -36 -13 -5 -28 40 -19
56 -20 90 -3 96 8 2 14 -15 19 -57 4 -34 9 -69 12 -79z m-24 -57 c6 -11 9 -20
7 -20 -2 0 -12 9 -22 20 -10 11 -13 20 -7 20 6 0 16 -9 22 -20z m262 -91 c33
-11 84 -35 112 -53 124 -81 152 -149 102 -250 -45 -93 -132 -147 -232 -147
-53 0 -117 26 -126 52 -2 6 6 42 19 79 40 118 39 227 -2 323 -6 14 -2 17 29
17 20 0 64 -9 98 -21z m-136 -98 c17 -110 -40 -293 -102 -332 -67 -41 -183
-21 -262 46 -67 56 -100 164 -69 225 12 24 18 25 117 30 121 7 195 29 249 77
32 28 37 30 48 16 7 -9 15 -36 19 -62z"/>
</g>
</svg>
