<?xml version="1.0" standalone="no"?>
<!DOCTYPE svg PUBLIC "-//W3C//DTD SVG 20010904//EN"
 "http://www.w3.org/TR/2001/REC-SVG-20010904/DTD/svg10.dtd">
<svg version="1.0" xmlns="http://www.w3.org/2000/svg"
 width="1900pt" height="1700pt" viewBox="0 0 1900.000000 1700.000000"
 preserveAspectRatio="xMidYMid meet">

<g transform="translate(0.000000,1700.000000) scale(0.100000,-0.100000)"
fill="#000000" stroke="none">
<path d="M7065 14023 c-3 -16 -11 -46 -17 -68 -6 -22 -13 -47 -14 -55 -2 -8
-13 -42 -24 -75 -11 -33 -23 -71 -26 -85 -6 -31 -32 -125 -45 -165 -6 -16 -12
-42 -14 -57 -2 -15 -9 -36 -14 -46 -6 -11 -13 -34 -16 -52 -3 -18 -10 -41 -16
-51 -5 -10 -8 -22 -7 -26 3 -11 -10 -64 -34 -148 -11 -38 -20 -71 -19 -73 1
-1 -5 -18 -13 -37 -8 -19 -13 -35 -11 -35 3 0 0 -12 -6 -27 -11 -28 -15 -44
-25 -92 -3 -14 -7 -28 -10 -33 -5 -8 -9 -22 -20 -77 -3 -13 -9 -32 -15 -43 -5
-10 -7 -18 -5 -18 3 0 1 -12 -5 -27 -6 -16 -13 -37 -15 -48 -12 -60 -19 -90
-50 -198 -19 -65 -38 -126 -44 -136 -5 -10 -7 -21 -4 -24 3 -2 -2 -22 -11 -42
-8 -21 -13 -40 -11 -43 3 -2 -1 -17 -9 -32 -8 -16 -17 -47 -20 -69 -3 -23 -12
-55 -20 -71 -8 -15 -17 -43 -19 -62 -8 -53 -16 -85 -27 -115 -6 -16 -13 -39
-15 -53 -3 -14 -9 -41 -14 -60 -5 -19 -9 -38 -10 -43 0 -4 -6 -20 -14 -36 -9
-16 -13 -31 -10 -34 3 -3 -1 -21 -10 -40 -8 -19 -12 -37 -10 -40 3 -3 -2 -22
-12 -43 -9 -22 -18 -48 -20 -59 -8 -50 -17 -86 -40 -165 -14 -47 -26 -94 -28
-105 -1 -11 -8 -31 -15 -43 -7 -13 -10 -26 -7 -29 3 -3 1 -14 -5 -25 -6 -11
-12 -28 -15 -39 -2 -10 -6 -28 -8 -39 -3 -11 -8 -25 -12 -32 -4 -6 -9 -27 -11
-46 -6 -52 -40 -126 -74 -158 -27 -26 -34 -28 -101 -26 -40 1 -129 11 -198 22
-178 28 -192 30 -219 30 -23 0 -290 34 -363 46 -24 4 -38 3 -38 -4 0 -6 15
-57 34 -114 19 -57 36 -117 39 -134 3 -17 10 -41 16 -52 6 -11 8 -28 5 -36 -4
-9 -2 -22 4 -29 11 -13 41 -90 47 -122 3 -11 18 -58 34 -105 16 -47 32 -96 34
-110 3 -14 19 -64 35 -112 17 -48 33 -101 35 -117 3 -16 8 -35 12 -40 3 -6 8
-19 10 -28 3 -10 14 -45 26 -78 49 -138 34 -176 -65 -176 -34 0 -95 -4 -136
-9 -41 -5 -112 -9 -158 -9 -96 -1 -104 -8 -72 -70 11 -23 18 -41 15 -41 -3 0
2 -14 10 -31 9 -17 14 -33 11 -36 -3 -3 -1 -14 5 -25 13 -25 76 -227 94 -306
19 -81 8 -106 -45 -98 -36 6 -173 14 -243 16 -36 0 -160 17 -302 39 -134 22
-359 76 -655 157 -131 35 -273 43 -374 19 -42 -10 -81 -24 -87 -31 -6 -8 -16
-14 -21 -14 -5 0 -34 -20 -66 -45 -31 -25 -127 -99 -212 -165 -85 -66 -162
-125 -170 -132 -8 -7 -48 -39 -90 -70 -41 -31 -82 -64 -90 -72 -8 -8 -33 -28
-55 -46 -173 -135 -242 -216 -251 -293 -3 -18 -7 -40 -10 -50 -7 -23 -6 -142
2 -210 11 -87 -43 -170 -151 -232 -25 -15 -59 -41 -77 -57 -18 -17 -50 -41
-70 -54 -21 -13 -45 -36 -55 -51 -10 -16 -30 -45 -46 -65 -39 -49 -52 -151
-27 -218 17 -46 62 -124 87 -148 7 -7 13 -20 13 -27 0 -7 11 -22 25 -33 14
-11 25 -26 25 -34 0 -8 15 -29 33 -46 17 -17 48 -52 67 -78 19 -26 73 -93 119
-148 46 -56 89 -108 96 -116 32 -39 126 -130 133 -130 5 0 31 -21 58 -46 121
-115 137 -116 140 -6 1 75 9 167 17 227 4 22 8 51 10 66 2 14 7 30 11 37 9 16
43 15 53 0 4 -7 34 -30 66 -52 31 -21 57 -43 57 -48 0 -5 10 -8 23 -6 15 2 23
11 24 28 2 14 5 41 8 60 9 60 13 95 29 245 4 33 12 78 18 100 6 22 11 46 9 52
-3 19 27 70 51 87 34 24 118 21 158 -6 40 -28 68 -64 74 -98 6 -32 84 -222 94
-229 4 -4 12 -16 17 -27 15 -32 77 -111 134 -168 80 -80 130 -122 206 -170 50
-32 108 -70 130 -84 52 -34 186 -102 201 -102 19 0 42 33 54 80 7 25 12 47 12
50 0 3 5 16 10 30 5 14 12 39 14 57 8 59 64 216 115 317 28 55 54 103 58 106
5 3 14 16 21 29 7 14 17 30 22 35 4 6 20 25 34 41 14 17 37 45 52 63 34 41 72
79 117 117 20 17 43 37 52 45 23 21 114 79 135 86 10 3 18 9 18 13 0 9 226
119 255 124 42 8 185 77 185 89 0 4 17 19 39 32 21 14 49 42 62 63 13 21 26
40 29 43 4 3 18 25 32 49 14 23 45 56 69 72 37 24 46 27 63 16 10 -7 52 -89
93 -182 40 -94 94 -214 118 -268 25 -53 45 -102 45 -107 0 -27 41 -4 80 44 25
30 55 59 68 65 12 6 22 15 22 20 0 9 78 44 121 55 18 4 31 0 43 -13 16 -17 15
-23 -9 -87 -14 -38 -28 -76 -30 -84 -61 -226 -69 -318 -40 -455 24 -115 73
-233 117 -279 11 -11 27 -34 35 -51 9 -16 30 -44 47 -62 17 -17 42 -46 56 -64
55 -71 286 -308 370 -379 29 -25 68 -58 86 -75 55 -50 231 -177 327 -236 177
-111 428 -207 680 -263 32 -8 36 -37 8 -63 -28 -27 -66 -56 -92 -73 -12 -8
-33 -25 -46 -37 -12 -12 -36 -30 -53 -39 -16 -10 -30 -22 -30 -26 0 -4 -37
-34 -82 -68 -46 -33 -94 -71 -108 -84 -14 -13 -41 -35 -60 -48 -19 -13 -62
-49 -94 -81 -33 -31 -68 -59 -77 -62 -10 -4 -21 -15 -24 -25 -3 -11 -17 -28
-31 -39 -25 -20 -64 -96 -72 -141 -19 -112 -17 -644 3 -800 3 -25 7 -58 9 -75
1 -16 6 -39 9 -50 6 -17 11 -52 21 -140 1 -11 7 -38 13 -60 6 -22 11 -47 10
-55 0 -17 72 -168 84 -175 4 -3 37 55 74 128 37 72 82 157 100 187 17 30 48
84 68 120 19 36 48 81 64 101 15 20 35 47 43 59 8 12 25 34 38 48 12 15 35 42
50 59 15 18 33 39 41 45 7 7 32 30 55 51 22 21 48 44 56 51 25 23 172 110 210
124 135 51 134 51 149 37 12 -12 12 -21 1 -57 -7 -24 -15 -49 -16 -57 -1 -8
-8 -17 -15 -21 -6 -4 -9 -13 -5 -18 4 -6 0 -28 -9 -49 -9 -20 -18 -56 -20 -80
-2 -24 -9 -52 -15 -63 -6 -11 -8 -25 -5 -30 3 -5 0 -29 -7 -52 -6 -24 -14 -59
-16 -78 -7 -63 -5 -394 2 -430 4 -19 9 -44 10 -55 2 -11 6 -31 9 -45 3 -14 11
-59 17 -100 12 -77 26 -137 61 -270 24 -87 126 -304 161 -339 12 -14 39 -47
58 -74 45 -64 67 -79 82 -53 5 10 18 26 28 36 9 9 26 31 36 49 10 17 21 31 25
31 4 0 10 11 13 25 4 14 11 25 16 25 6 0 10 5 10 11 0 6 21 45 47 87 38 63
183 353 183 366 0 2 36 78 79 167 44 90 111 234 151 319 74 163 132 267 176
320 43 51 132 90 223 97 l77 6 32 -34 c50 -53 67 -116 66 -244 -1 -60 -4 -137
-7 -170 -4 -33 -8 -80 -11 -105 -6 -68 -6 -409 0 -455 3 -22 7 -62 9 -90 3
-27 18 -122 35 -210 41 -208 37 -191 59 -260 10 -33 29 -96 41 -140 24 -85 50
-145 62 -145 4 0 15 12 25 27 10 16 20 30 23 33 13 11 68 98 105 165 21 39 52
95 70 125 18 30 65 111 105 180 40 69 90 153 112 187 21 34 38 66 38 70 0 5
25 46 55 92 30 46 57 93 61 105 3 11 28 59 54 106 26 47 71 130 100 185 63
120 90 167 106 180 6 6 15 24 19 40 3 17 16 46 28 65 12 19 23 42 24 50 1 8
15 53 31 100 38 113 52 161 53 185 3 88 -6 259 -14 272 -4 6 0 16 8 23 15 12
132 -29 414 -147 46 -19 94 -37 106 -39 13 -2 54 -17 92 -34 39 -16 83 -32
100 -34 16 -3 47 -13 68 -22 22 -9 46 -18 54 -20 9 -2 57 -15 106 -29 91 -27
170 -49 235 -65 19 -5 87 -23 150 -39 63 -17 136 -33 161 -36 25 -2 58 -9 73
-15 49 -18 49 -11 2 42 -26 29 -66 74 -89 100 -23 25 -57 64 -75 85 -17 21
-46 54 -63 73 -16 19 -36 42 -43 50 -36 42 -116 152 -116 160 0 5 -6 15 -14
23 -35 35 -191 318 -222 404 -10 29 -9 34 12 54 12 11 27 19 32 15 5 -3 24 0
41 7 36 13 36 7 3 127 -11 41 -23 89 -26 105 -2 17 -10 47 -16 68 -6 20 -13
49 -15 65 -6 42 -13 71 -20 82 -3 5 -8 24 -11 42 -8 48 -11 61 -49 203 -19 72
-37 147 -40 169 -3 21 -8 42 -11 47 -3 5 -7 17 -9 26 -3 10 -25 99 -51 198
-43 171 -45 183 -34 239 14 73 47 126 102 164 24 16 115 70 203 120 139 78
246 140 385 223 19 11 121 71 227 132 244 143 242 142 343 199 47 27 117 73
155 103 78 59 161 145 142 146 -7 0 -84 7 -172 14 -88 8 -203 16 -255 18 -429
15 -521 21 -545 35 -5 3 -21 7 -35 8 -30 4 -63 40 -52 59 7 13 91 74 122 89
20 9 49 27 85 51 46 30 68 44 90 55 29 14 107 60 595 355 187 113 280 168 328
195 15 8 29 18 32 21 3 4 37 24 75 45 39 21 74 44 78 51 4 7 13 13 19 13 11 0
320 181 393 230 46 31 203 128 243 150 15 8 41 25 57 36 17 12 59 36 94 54 36
18 71 38 79 46 8 8 31 23 51 34 41 20 191 118 191 124 0 2 -60 1 -132 -1 -73
-2 -185 0 -248 5 -63 5 -185 13 -270 16 -85 4 -200 11 -255 16 -107 9 -173 14
-355 22 -301 14 -547 29 -566 33 -12 3 -99 7 -193 11 -94 3 -213 9 -264 14
-99 9 -234 17 -309 18 -35 1 -52 7 -67 23 -12 13 -21 25 -21 28 1 15 166 171
181 171 5 0 27 17 48 38 64 62 106 98 137 118 16 10 34 23 40 29 6 5 22 17 35
25 12 8 40 31 61 50 60 54 98 86 158 132 31 24 65 51 77 62 59 54 93 83 117
101 15 11 40 31 56 45 16 14 38 32 50 40 43 29 86 66 127 107 23 23 61 54 84
69 23 14 57 40 75 57 55 52 100 91 128 112 15 11 40 31 56 45 16 14 41 34 56
45 15 11 43 34 63 52 20 17 50 44 67 59 17 15 47 41 66 58 19 17 48 40 63 51
27 20 75 62 159 140 24 22 57 51 75 65 17 14 48 42 69 62 20 20 57 53 82 73
25 20 70 59 100 86 106 98 158 144 219 199 80 70 261 252 261 261 0 4 -30 14
-67 23 -56 12 -142 15 -468 14 -435 -1 -582 -4 -605 -11 -8 -3 -100 -10 -205
-16 -225 -13 -347 -24 -595 -53 -102 -11 -210 -23 -240 -25 -30 -2 -100 -12
-155 -22 -55 -11 -181 -33 -280 -51 -99 -17 -209 -37 -245 -45 -36 -8 -123
-23 -195 -35 -71 -11 -157 -25 -190 -30 -269 -44 -810 -54 -1031 -19 -66 10
-135 21 -154 23 -122 13 -309 67 -670 191 -151 52 -355 103 -444 111 -33 3
-66 9 -75 14 -19 10 -701 8 -717 -2 -22 -14 -106 24 -149 68 -37 37 -115 153
-115 171 0 3 -26 52 -59 107 -32 56 -80 142 -106 191 -93 175 -548 991 -576
1033 -16 24 -29 45 -29 48 0 3 -38 71 -85 153 -46 81 -89 160 -94 174 -6 14
-25 50 -44 79 -19 29 -58 90 -87 136 -29 45 -56 82 -61 82 -5 0 -11 -12 -14
-27z m179 -775 c30 -29 61 -65 68 -79 8 -15 26 -42 41 -60 64 -78 252 -465
272 -559 4 -19 12 -41 18 -48 5 -7 12 -29 14 -48 2 -20 11 -50 19 -66 9 -16
13 -32 11 -35 -3 -2 1 -21 9 -40 9 -19 13 -38 10 -40 -3 -3 0 -15 5 -26 13
-23 20 -64 26 -155 4 -51 1 -67 -13 -83 -9 -10 -21 -19 -25 -19 -8 0 -80 64
-177 157 -53 51 -127 102 -162 110 -14 3 -29 9 -35 13 -5 5 -26 1 -45 -8 -28
-14 -44 -35 -82 -107 -26 -49 -53 -108 -61 -130 -8 -22 -22 -60 -30 -85 -19
-52 -66 -197 -72 -222 -21 -91 -107 -383 -147 -501 -77 -233 -163 -393 -239
-450 l-26 -19 -66 39 c-40 23 -67 46 -69 58 -2 11 9 56 25 100 16 44 31 91 33
105 3 14 10 41 16 60 7 19 11 39 10 43 -1 4 2 16 8 27 5 10 12 34 14 52 5 35
55 228 62 240 5 8 12 35 21 83 3 17 9 38 15 48 10 19 15 38 25 92 3 17 9 38
14 48 5 9 7 17 4 17 -3 0 1 15 9 34 8 19 12 37 9 39 -2 3 2 18 10 34 8 15 17
42 20 59 3 17 10 41 17 53 6 13 9 25 7 28 -3 2 0 19 8 36 7 18 10 37 8 44 -2
6 3 25 11 41 8 16 17 40 20 53 3 13 8 37 11 53 3 16 10 37 16 48 5 10 8 18 5
18 -3 0 1 15 9 33 8 19 16 52 19 75 3 22 9 50 15 60 5 10 12 30 15 43 6 28 10
44 31 119 9 30 18 62 20 70 2 8 8 29 14 47 5 17 7 33 5 36 -2 2 3 21 12 43 9
21 16 41 15 44 0 3 10 41 23 85 24 79 38 135 41 165 5 47 65 180 81 180 1 0
27 -24 58 -52z m7109 -1599 c12 -18 -39 -96 -86 -133 -53 -41 -106 -88 -158
-143 -28 -28 -69 -64 -92 -80 -49 -33 -64 -46 -120 -98 -68 -64 -219 -190
-252 -211 -16 -10 -40 -27 -51 -39 -68 -63 -210 -182 -235 -196 -11 -6 -29
-18 -38 -27 -53 -49 -179 -150 -205 -164 -12 -6 -29 -18 -38 -27 -10 -9 -29
-25 -43 -36 -14 -11 -36 -29 -49 -40 -13 -11 -33 -27 -46 -35 -13 -8 -30 -23
-39 -33 -9 -10 -32 -27 -51 -37 -19 -10 -48 -31 -65 -46 -16 -16 -55 -48 -85
-71 -30 -24 -66 -53 -80 -65 -14 -11 -50 -37 -80 -56 -30 -20 -68 -49 -85 -64
-16 -16 -50 -40 -75 -55 -25 -15 -49 -32 -55 -38 -17 -19 -240 -179 -330 -236
-130 -83 -139 -88 -152 -77 -7 6 -13 15 -13 20 0 30 147 190 215 233 17 11 36
28 43 37 7 10 18 18 24 18 5 0 22 12 37 28 15 15 37 34 51 42 13 8 38 29 56
45 31 29 69 61 127 108 15 12 37 31 49 42 12 11 36 30 53 42 60 45 77 59 122
101 26 23 50 42 54 42 5 0 21 11 36 24 15 14 40 35 56 48 15 13 42 37 61 53
44 40 98 85 130 110 14 11 37 29 50 40 13 11 36 29 50 40 15 11 42 34 60 50
18 17 45 39 60 50 15 11 32 25 39 30 6 6 37 29 68 52 30 24 85 74 122 111 36
38 78 77 92 86 44 29 20 29 -37 0 -29 -15 -102 -48 -163 -74 -60 -26 -144 -64
-185 -83 -136 -65 -177 -78 -190 -62 -17 21 -2 75 23 84 12 5 43 31 69 57 26
27 60 59 75 72 15 12 44 36 63 52 39 35 223 150 238 150 6 0 34 16 64 36 75
50 467 239 518 249 8 2 42 12 76 23 33 12 71 23 85 26 56 12 70 15 80 22 6 3
30 6 53 6 22 -1 48 3 56 8 18 12 31 9 43 -11z m-5553 -9 c36 0 92 -4 125 -10
33 -5 74 -11 91 -14 17 -2 41 -9 53 -15 12 -7 26 -9 31 -6 5 3 29 0 52 -6 24
-7 46 -12 50 -11 4 1 20 -3 35 -9 15 -6 37 -12 48 -14 11 -2 30 -6 43 -9 12
-3 31 -8 42 -10 11 -3 25 -8 32 -12 6 -4 21 -8 32 -10 32 -4 58 -11 87 -22 15
-6 29 -9 31 -7 5 5 79 -17 131 -39 20 -9 37 -14 37 -11 0 2 12 0 28 -6 15 -6
38 -13 51 -15 13 -3 49 -14 80 -26 102 -37 336 -118 356 -123 11 -3 49 -14 85
-26 73 -24 93 -29 133 -35 16 -2 34 -7 40 -11 6 -3 22 -8 36 -9 14 -1 37 -5
51 -9 14 -4 41 -9 60 -11 19 -2 51 -6 70 -9 19 -2 53 -7 75 -10 37 -4 498 -5
590 0 22 1 49 5 60 8 11 4 49 9 85 12 36 2 85 9 110 14 25 5 61 12 80 15 19 3
58 10 85 16 28 6 59 12 70 14 30 5 77 17 105 27 14 4 36 10 50 13 30 5 109 29
350 107 102 33 194 61 205 63 11 3 49 15 85 29 100 38 212 75 240 80 14 3 42
12 63 20 20 9 37 14 37 11 0 -3 8 0 19 5 10 6 79 24 153 40 157 35 262 37 285
4 12 -16 10 -22 -21 -50 -19 -17 -53 -37 -77 -43 -23 -6 -49 -15 -58 -20 -9
-5 -53 -21 -98 -35 -46 -15 -85 -30 -88 -35 -5 -7 -95 -71 -134 -95 -9 -5 -72
-51 -141 -101 -69 -50 -143 -102 -165 -117 -22 -14 -85 -58 -140 -97 -55 -38
-115 -78 -132 -87 -18 -9 -33 -20 -33 -25 0 -7 -36 -33 -99 -73 -72 -46 -199
-134 -219 -152 -13 -12 -91 -68 -174 -125 -83 -57 -163 -112 -178 -123 -16
-11 -102 -69 -192 -130 -89 -60 -171 -117 -181 -127 -11 -9 -46 -31 -79 -48
-52 -28 -63 -30 -87 -20 -16 6 -34 22 -42 36 -16 30 -1 59 66 132 37 40 98
120 155 202 8 12 23 32 32 43 29 36 32 41 51 70 10 16 27 38 38 50 32 36 43
50 69 89 14 21 28 38 32 38 4 0 14 13 23 29 l15 29 -53 6 c-44 5 -116 8 -407
14 -52 2 -886 212 -1010 255 -25 9 -134 41 -243 72 -109 30 -217 62 -240 71
-23 8 -51 17 -62 19 -29 5 -156 40 -255 71 -360 112 -558 129 -775 68 -100
-28 -136 -31 -403 -26 -138 2 -143 3 -151 25 -6 16 -2 35 14 67 49 96 130 137
291 147 239 15 361 20 394 17 19 -2 64 -4 100 -4z m-3035 -964 c106 -7 269
-48 273 -68 5 -26 -24 -45 -120 -78 -51 -18 -115 -40 -143 -50 -27 -9 -50 -21
-50 -26 1 -5 5 -67 9 -137 9 -133 2 -177 -28 -177 -41 0 -192 221 -211 308 -3
12 -7 30 -10 40 -36 133 -29 153 59 182 35 11 78 18 101 16 22 -2 76 -7 120
-10z m289 -853 c3 -10 26 -90 51 -178 52 -179 82 -281 132 -435 48 -149 44
-154 -117 -165 -101 -8 -103 -8 -65 -20 107 -32 191 -98 226 -178 22 -51 71
-320 62 -343 -11 -30 -42 -23 -162 36 -224 110 -336 203 -410 340 -99 185 -66
398 119 775 88 179 111 211 140 195 10 -5 21 -18 24 -27z m3641 -269 c10 -10
14 -25 11 -38 -3 -12 -19 -147 -36 -301 -46 -431 -70 -542 -160 -730 -86 -179
-256 -334 -470 -426 -120 -51 -199 -70 -321 -76 -119 -6 -198 2 -584 57 -825
119 -843 123 -871 165 -20 31 -11 48 109 208 265 353 652 642 1102 824 325
132 566 202 1014 298 185 40 185 40 206 19z m3725 -374 c186 -14 388 -38 431
-50 21 -6 44 -22 53 -35 16 -24 15 -26 -25 -70 -131 -142 -710 -530 -1259
-842 -354 -201 -689 -354 -742 -337 -24 7 -29 31 -10 52 26 30 415 371 725
635 152 130 277 241 277 245 0 4 -21 14 -47 21 -306 89 -545 186 -637 260 -21
17 -42 31 -47 31 -14 0 -28 35 -20 48 12 20 120 43 246 52 153 11 877 4 1055
-10z m-9430 -169 c19 -6 64 -17 100 -26 36 -9 144 -36 240 -60 301 -75 469
-101 820 -125 85 -6 170 -15 188 -21 40 -13 56 -46 97 -195 15 -54 35 -124 45
-154 58 -177 60 -216 13 -340 -39 -106 -77 -134 -274 -205 -470 -171 -772
-479 -925 -943 -15 -46 -35 -87 -44 -92 -13 -7 -34 3 -86 37 -282 189 -424
382 -424 577 0 93 16 150 78 279 67 137 168 270 331 433 72 73 131 134 131
138 0 3 -55 6 -123 6 -150 0 -225 -19 -357 -88 -119 -63 -242 -154 -354 -262
-180 -173 -286 -352 -356 -600 -21 -75 -31 -98 -46 -104 -19 -7 -34 11 -101
118 -116 186 -138 267 -153 553 -13 262 -9 306 40 382 41 63 192 198 444 397
285 225 377 289 439 305 41 10 231 4 277 -10z m-340 -1185 c0 -12 -21 -70 -58
-159 -20 -49 -44 -63 -83 -46 -49 20 -51 37 -11 106 21 34 53 73 72 87 39 27
80 34 80 12z m6140 -37 c28 -51 -8 -161 -148 -452 -231 -478 -539 -823 -912
-1024 -141 -75 -320 -136 -405 -137 -89 -1 -159 44 -223 144 -52 81 -234 330
-241 330 -3 0 -46 -81 -94 -181 -119 -244 -110 -247 -244 81 -34 85 -69 160
-76 167 -10 10 -31 -9 -112 -98 -73 -81 -104 -109 -120 -107 -15 2 -46 52
-125 201 -57 108 -108 197 -112 197 -4 0 -33 -16 -64 -34 -69 -42 -79 -38
-128 37 -18 29 -49 77 -68 107 -51 80 -94 169 -125 257 -22 67 -26 95 -27 198
-1 129 12 193 45 226 16 16 28 19 72 13 29 -3 83 -20 120 -37 85 -38 166 -121
232 -239 43 -78 121 -188 132 -188 3 0 42 35 88 78 122 116 249 172 435 194
47 5 202 7 345 5 l260 -5 78 -30 c121 -47 200 -106 262 -197 21 -30 43 -55 49
-55 5 0 89 80 185 178 143 145 190 186 252 220 77 43 166 79 229 92 19 4 98
21 175 38 258 56 248 55 265 21z m-7194 -97 c7 -4 23 -32 37 -62 127 -284 157
-380 157 -515 0 -74 -13 -105 -44 -105 -17 0 -316 386 -354 455 -13 25 7 86
40 122 25 28 136 113 147 113 3 0 11 -4 17 -8z m10118 -307 c182 -28 210 -44
158 -92 -36 -34 -256 -139 -411 -198 -69 -26 -199 -84 -290 -130 -281 -141
-533 -241 -564 -224 -25 15 -21 39 19 105 61 101 110 144 302 258 61 37 112
71 112 75 0 4 -26 20 -57 36 -99 51 -79 91 67 135 155 48 470 64 664 35z
m-2584 -1380 c85 -43 182 -145 256 -271 71 -121 101 -187 240 -532 78 -195
144 -443 165 -617 4 -38 13 -99 19 -135 14 -82 -1 -203 -35 -295 -21 -56 -126
-270 -155 -315 -10 -17 -114 -264 -191 -455 -28 -71 -112 -254 -187 -405 -74
-151 -147 -302 -163 -337 -27 -61 -40 -71 -66 -55 -28 18 -38 95 -48 407 -2
66 -7 203 -10 305 -7 192 -1 247 49 475 9 39 23 118 31 178 23 160 4 211 -108
291 -97 68 -142 87 -221 93 -59 4 -85 0 -153 -21 -173 -56 -258 -178 -542
-787 -50 -107 -115 -240 -145 -295 -29 -54 -74 -138 -99 -185 -61 -113 -78
-133 -104 -125 -30 9 -41 43 -58 172 -31 240 -14 514 55 851 43 214 67 265
114 247 16 -6 80 -107 147 -231 34 -64 54 -77 63 -45 5 18 30 169 66 407 57
365 153 608 316 799 19 22 32 41 30 43 -8 8 -72 -30 -174 -104 -119 -87 -229
-153 -254 -153 -42 0 -31 44 51 211 95 193 118 229 250 394 107 133 136 173
130 180 -22 22 -283 -91 -398 -172 -102 -72 -246 -218 -308 -312 -65 -99 -125
-224 -149 -313 -45 -163 -80 -193 -277 -233 -159 -32 -195 -46 -277 -107 -78
-58 -111 -98 -240 -290 -98 -145 -131 -184 -223 -265 -75 -65 -91 -46 -90 103
3 305 60 589 154 764 40 76 154 207 236 273 87 69 238 182 378 282 61 44 148
110 195 148 94 76 145 105 239 136 63 21 78 25 316 81 72 17 153 37 180 45 28
8 75 21 105 29 30 8 154 42 275 76 121 35 239 66 263 71 24 5 48 12 54 16 19
11 130 21 182 17 27 -3 78 -20 116 -39z"/>
</g>
</svg>
