<?xml version="1.0" standalone="no"?>
<!DOCTYPE svg PUBLIC "-//W3C//DTD SVG 20010904//EN"
 "http://www.w3.org/TR/2001/REC-SVG-20010904/DTD/svg10.dtd">
<svg version="1.0" xmlns="http://www.w3.org/2000/svg"
 width="736.000000pt" height="734.000000pt" viewBox="0 0 736.000000 734.000000"
 preserveAspectRatio="xMidYMid meet">

<g transform="translate(0.000000,734.000000) scale(0.100000,-0.100000)"
fill="#000000" stroke="none">
<path d="M6315 7305 c-70 -32 -584 -225 -598 -225 -5 0 -23 -7 -40 -14 -94
-43 -517 -174 -712 -220 -60 -14 -123 -30 -140 -36 -40 -12 -427 -87 -491 -94
-61 -7 -85 7 -134 84 -43 66 -67 149 -76 254 -4 48 -10 88 -13 90 -10 7 -183
-24 -247 -44 -116 -36 -335 -160 -459 -260 l-40 -32 -19 26 c-24 32 -98 201
-142 325 -18 52 -37 98 -43 104 -7 7 -26 -5 -61 -37 -80 -75 -173 -177 -209
-229 -46 -67 -125 -236 -156 -334 -15 -46 -31 -83 -35 -83 -22 0 -136 98 -221
189 -91 99 -97 103 -119 91 -35 -19 -130 -111 -130 -126 0 -7 -4 -14 -8 -16
-15 -6 -91 -140 -119 -211 l-28 -69 -115 7 c-127 7 -254 20 -655 65 -298 34
-355 42 -495 70 -52 10 -135 26 -185 35 -49 10 -151 32 -225 51 -74 18 -136
32 -137 30 -8 -8 23 -209 47 -309 73 -293 208 -527 470 -817 90 -99 134 -143
240 -236 87 -77 100 -92 101 -121 0 -15 11 -138 23 -273 21 -216 22 -246 9
-257 -23 -18 -133 -26 -285 -21 -76 3 -138 3 -138 1 0 -20 72 -133 117 -182
53 -59 169 -140 231 -162 18 -6 32 -15 32 -19 0 -17 -118 -82 -188 -102 -39
-12 -72 -26 -72 -30 0 -10 79 -90 133 -136 l39 -33 -38 -47 c-21 -26 -41 -49
-44 -52 -3 -3 -18 -23 -35 -45 -16 -22 -32 -42 -35 -45 -6 -5 -147 -195 -168
-226 -179 -270 -315 -596 -363 -874 -11 -65 -23 -189 -26 -285 l-6 -170 49 41
c67 56 96 74 114 74 8 0 32 -29 53 -65 37 -61 106 -135 127 -135 5 0 12 12 16
28 18 83 75 212 94 212 5 0 19 -18 29 -39 23 -45 115 -141 135 -141 8 0 21 34
36 97 26 108 69 182 144 251 55 51 121 85 147 77 12 -4 36 -38 59 -85 110
-218 146 -358 137 -530 -4 -92 -11 -123 -55 -255 -69 -204 -76 -249 -76 -460
0 -237 23 -354 99 -507 l34 -67 -32 -7 c-64 -13 -154 -61 -179 -95 -34 -46
-60 -98 -54 -108 3 -5 20 -12 38 -15 18 -3 44 -8 58 -11 141 -30 414 -24 645
14 303 51 566 195 752 413 17 20 40 41 51 47 13 7 99 11 235 11 l215 0 37 -66
c62 -111 220 -255 352 -323 l43 -21 62 31 c34 17 73 39 87 49 14 10 58 38 96
63 75 48 162 128 237 217 l46 55 255 0 c141 0 258 -3 261 -6 3 -3 14 -37 24
-76 18 -68 56 -148 90 -188 104 -126 448 -198 858 -181 219 9 454 42 469 65 2
5 -31 31 -73 59 -85 56 -152 117 -152 139 0 7 20 53 44 102 115 228 126 371
55 671 -17 69 -55 186 -85 261 l-55 136 58 114 c64 125 72 144 101 239 34 109
62 317 62 460 0 83 6 88 80 60 139 -52 282 -171 347 -289 20 -37 38 -68 39
-70 2 -2 20 7 40 19 35 22 45 39 93 154 l12 29 23 -22 c12 -11 42 -59 66 -106
24 -46 47 -82 52 -79 15 10 51 88 63 137 6 26 15 49 20 49 13 2 77 -82 104
-138 13 -24 26 -44 30 -44 4 0 20 40 34 88 25 82 27 103 27 265 0 116 -5 199
-15 244 -82 387 -337 825 -680 1169 -71 72 -163 155 -203 184 l-73 53 69 67
c69 67 106 127 133 218 7 23 9 45 6 48 -4 4 -30 -5 -59 -18 -29 -14 -77 -30
-106 -37 -62 -13 -208 -15 -216 -2 -3 5 19 25 49 45 128 85 226 282 242 485 5
70 4 83 -8 78 -213 -89 -267 -102 -396 -93 -51 3 -100 9 -109 13 -15 5 -15 27
-9 221 l8 214 142 292 c176 361 341 733 370 836 4 14 13 39 21 55 15 35 99
314 109 363 7 35 4 37 -40 17z m-1600 -1827 c-8 -108 -22 -210 -35 -253 -5
-16 -19 -61 -31 -100 -30 -99 -73 -176 -133 -238 -86 -90 -170 -140 -319 -188
-90 -30 -106 -29 -107 7 0 6 -11 47 -25 91 -33 104 -73 147 -103 110 -16 -19
-42 -142 -42 -197 l0 -49 -37 5 c-64 9 -223 60 -251 80 -7 5 23 51 73 114 48
59 123 135 215 216 72 62 287 218 389 281 120 74 379 212 399 213 11 0 12 -19
7 -92z m-2582 -568 c211 -40 426 -125 597 -235 61 -40 70 -50 70 -76 0 -60
-60 -132 -140 -168 -61 -27 -62 -26 -74 108 -4 41 -13 89 -21 108 -35 83 -97
-2 -123 -166 l-16 -98 -50 4 c-28 3 -85 13 -127 23 -250 60 -403 215 -430 436
-8 61 -8 89 0 93 16 10 194 -6 314 -29z m2937 -258 c-21 -265 -67 -438 -173
-649 -60 -120 -154 -258 -216 -317 l-31 -30 0 370 1 369 173 177 c95 97 191
200 212 228 39 51 39 51 42 23 2 -15 -1 -92 -8 -171z m-581 -843 c0 -152 -2
-291 -5 -308 -8 -38 -81 -89 -254 -177 -96 -49 -299 -127 -308 -119 -12 10
-20 960 -8 972 2 2 80 26 173 53 92 27 218 64 278 83 l110 33 6 -130 c4 -72 7
-255 8 -407z m-2659 371 c98 -78 234 -169 305 -205 19 -10 20 -22 23 -220 2
-116 0 -229 -3 -253 l-6 -43 -30 26 c-41 34 -119 128 -162 196 -62 97 -123
256 -151 391 -14 69 -26 128 -26 132 0 12 12 6 50 -24z m1924 -52 c8 -30 8
-380 -1 -705 l-6 -262 -46 -10 c-155 -33 -483 -48 -586 -27 -11 2 -60 9 -110
16 -49 7 -100 16 -112 21 l-23 9 0 414 c0 386 1 415 18 420 9 2 60 10 112 16
52 7 104 14 115 16 63 12 197 35 315 54 74 12 169 30 210 40 98 24 107 24 114
-2z m-1040 -160 c3 -13 6 -189 6 -392 l0 -368 -47 7 c-88 13 -249 79 -360 147
l-33 20 0 172 c0 95 3 227 6 293 l7 120 46 2 c25 1 93 6 151 10 198 15 217 14
224 -11z"/>
</g>
</svg>
