<?xml version="1.0" standalone="no"?>
<!DOCTYPE svg PUBLIC "-//W3C//DTD SVG 20010904//EN"
 "http://www.w3.org/TR/2001/REC-SVG-20010904/DTD/svg10.dtd">
<svg version="1.0" xmlns="http://www.w3.org/2000/svg"
 width="742.000000pt" height="798.000000pt" viewBox="0 0 742.000000 798.000000"
 preserveAspectRatio="xMidYMid meet">

<g transform="translate(0.000000,798.000000) scale(0.100000,-0.100000)"
fill="#000000" stroke="none">
<path d="M2602 7643 c-40 -19 -201 -216 -237 -288 -32 -64 -49 -156 -41 -220
9 -71 58 -250 105 -385 22 -63 84 -203 138 -310 68 -133 108 -227 128 -295 48
-170 254 -547 399 -730 39 -49 88 -125 81 -125 -10 0 -230 126 -285 163 -63
42 -207 167 -360 312 -82 78 -126 111 -197 148 -50 26 -113 67 -140 90 -26 23
-101 87 -166 141 -66 55 -131 115 -145 134 -80 103 -148 178 -204 227 -35 30
-83 80 -108 111 -25 30 -79 83 -120 118 -41 34 -111 96 -156 137 -44 41 -134
119 -199 174 -65 55 -145 124 -179 154 -113 99 -136 93 -136 -38 1 -77 16
-146 93 -426 22 -76 49 -215 66 -335 56 -389 168 -812 258 -970 39 -68 125
-173 238 -290 123 -128 253 -273 284 -318 13 -18 25 -31 28 -28 8 8 -32 89
-85 172 -71 113 -205 341 -232 394 -13 24 -29 85 -36 134 -15 97 -30 376 -21
376 3 0 36 -42 73 -92 63 -87 113 -149 340 -418 120 -143 190 -243 225 -319
36 -78 82 -295 105 -494 l17 -148 -54 -118 -54 -118 -70 -18 c-38 -9 -101 -25
-140 -35 -128 -33 -372 -81 -493 -96 -44 -5 -55 -10 -62 -29 -7 -17 -20 -26
-47 -31 -61 -10 -80 -28 -92 -84 -21 -97 -8 -173 37 -223 56 -62 204 -136 321
-160 l63 -13 -117 -112 c-64 -61 -136 -120 -158 -131 -23 -11 -85 -32 -137
-46 -52 -14 -185 -55 -295 -90 -110 -36 -243 -76 -295 -91 -296 -80 -343 -119
-302 -250 26 -82 157 -277 252 -374 90 -92 154 -125 287 -149 78 -14 96 -20
110 -41 70 -102 225 -279 287 -326 39 -31 88 -75 108 -97 20 -23 39 -39 42
-36 3 2 -6 30 -18 62 -13 31 -20 57 -15 57 4 0 11 -5 14 -10 9 -15 168 -130
173 -126 2 3 -12 32 -32 65 -19 34 -34 61 -32 61 2 0 45 -16 96 -35 105 -38
112 -44 270 -221 60 -66 140 -144 179 -172 39 -28 71 -50 71 -47 0 2 -25 32
-56 67 -31 35 -73 98 -95 144 -30 62 -61 105 -124 171 -81 87 -86 90 -162 112
-43 13 -111 26 -151 30 l-73 7 6 -35 7 -35 -44 35 c-59 47 -128 93 -132 88 -2
-2 2 -22 9 -44 8 -21 13 -41 11 -42 -2 -2 -34 27 -73 64 -62 60 -72 75 -87
131 -10 35 -15 66 -13 69 3 2 84 9 181 14 172 9 178 10 328 59 140 46 160 50
250 50 66 0 140 -8 226 -26 141 -29 197 -32 353 -19 73 5 126 4 170 -4 170
-32 346 -26 449 15 37 15 78 18 230 20 128 1 209 6 263 18 136 28 264 15 357
-37 66 -36 259 -116 394 -163 136 -46 353 -94 461 -101 80 -5 104 -2 215 27
280 73 327 79 450 59 129 -21 226 -103 304 -256 46 -92 135 -318 187 -475 73
-219 109 -293 184 -376 92 -101 216 -150 332 -132 97 16 140 53 245 215 162
248 250 424 358 710 131 349 190 629 190 901 0 94 -24 243 -45 284 -8 16 -59
64 -112 106 -238 190 -287 239 -454 456 -66 86 -146 181 -178 210 -31 29 -154
117 -272 195 -118 78 -254 173 -304 210 -49 37 -146 106 -215 153 -202 138
-377 274 -505 394 -215 201 -252 227 -543 374 -170 85 -228 129 -436 329 -286
278 -382 384 -449 498 -56 94 -111 170 -169 231 -92 95 -265 357 -396 599
-167 306 -225 449 -266 655 -39 189 -65 266 -106 310 -33 35 -75 39 -128 13z
m72 -195 c16 -91 55 -214 101 -316 8 -18 29 -41 45 -50 25 -14 37 -37 72 -131
23 -63 70 -169 104 -235 100 -195 385 -605 459 -662 38 -29 127 -150 168 -229
78 -150 189 -287 393 -484 277 -269 321 -304 474 -378 74 -36 180 -87 235
-114 79 -38 126 -71 222 -153 160 -138 297 -249 386 -314 40 -29 99 -74 132
-100 33 -27 101 -77 150 -112 50 -35 122 -89 160 -120 64 -52 136 -100 413
-276 188 -118 239 -171 396 -409 115 -173 223 -290 375 -403 64 -47 128 -100
143 -116 33 -36 36 -73 26 -291 -11 -248 -53 -410 -205 -785 -138 -339 -252
-558 -383 -735 -100 -135 -117 -147 -222 -160 -52 -7 -57 -5 -92 26 -21 17
-46 49 -56 69 -26 51 -95 224 -137 343 -18 54 -63 167 -99 250 -36 84 -79 190
-96 237 -62 174 -112 240 -224 292 -63 30 -68 30 -212 29 -131 -1 -163 -5
-292 -36 -338 -81 -324 -78 -412 -72 -137 9 -347 67 -658 180 -52 19 -146 65
-208 103 -223 136 -371 209 -492 244 -122 34 -314 62 -475 69 -203 8 -216 14
-283 109 -115 163 -203 230 -474 364 -76 38 -138 70 -138 72 0 2 17 0 38 -5
20 -5 61 -9 90 -9 62 0 87 20 98 75 9 49 0 174 -16 206 -14 30 -65 61 -165
100 -38 15 -63 30 -55 32 8 3 44 16 80 28 56 21 82 24 185 23 85 -1 134 -6
170 -18 91 -32 229 -105 299 -158 91 -70 182 -128 226 -143 24 -8 127 -12 335
-13 285 -1 438 -9 640 -33 151 -18 217 10 337 142 40 44 77 87 81 95 21 37 -9
21 -99 -55 -54 -44 -101 -81 -107 -81 -10 0 82 177 148 285 70 113 78 160 78
448 0 136 -2 250 -5 253 -18 17 -32 -80 -37 -256 l-6 -195 -22 75 c-12 41 -31
110 -42 152 -12 43 -40 109 -63 147 -41 70 -120 161 -138 161 -21 0 -8 -36 28
-79 59 -70 69 -90 85 -171 8 -41 19 -84 23 -94 7 -17 3 -16 -27 6 -19 14 -67
38 -107 53 -49 18 -94 45 -134 79 -85 72 -115 93 -178 126 -30 15 -82 45 -115
65 l-60 37 69 -6 c77 -8 107 -20 185 -78 80 -60 169 -109 177 -96 4 6 -9 22
-27 37 -19 14 -66 56 -106 93 -40 36 -87 71 -105 77 -18 6 -103 20 -188 31
-85 11 -213 29 -285 40 -71 10 -176 22 -232 26 l-101 7 26 53 c48 99 5 75 -79
-44 -22 -30 -40 -80 -63 -171 -32 -127 -51 -169 -110 -246 -76 -99 -239 -286
-273 -313 -129 -101 -266 -178 -335 -188 -24 -3 -86 -17 -138 -31 -146 -38
-225 -40 -344 -9 -108 28 -224 87 -275 140 -25 25 -32 45 -40 101 -6 38 -9 70
-8 72 2 1 27 -4 57 -13 82 -22 146 -20 240 9 61 19 95 36 120 60 29 28 62 42
195 82 88 27 172 54 188 62 23 11 31 11 55 -1 15 -7 43 -17 62 -20 33 -7 34
-6 15 9 -11 8 -35 20 -55 26 -19 6 -44 17 -54 25 -18 13 -18 15 -3 32 16 18
160 310 187 382 8 19 42 90 76 156 48 94 68 147 88 235 44 188 80 231 197 237
39 3 103 -1 143 -7 39 -6 163 -18 275 -26 112 -8 207 -18 210 -23 3 -4 28 -42
56 -83 129 -194 486 -579 537 -579 18 0 -17 45 -115 148 -56 59 -150 168 -208
242 -97 123 -137 182 -231 340 -18 30 -61 91 -97 134 -82 102 -165 237 -297
483 -59 109 -117 216 -129 238 -12 22 -46 112 -76 199 -40 121 -66 180 -107
245 -74 116 -122 222 -170 373 -59 183 -67 232 -52 315 13 77 40 137 97 213
37 50 134 130 158 130 7 0 19 -41 29 -102z m-1569 -503 c66 -66 166 -173 223
-238 l103 -117 -6 -53 c-3 -28 -7 -122 -8 -207 l-2 -155 47 -96 c73 -150 192
-294 353 -427 239 -198 505 -467 505 -511 0 -10 -13 -30 -29 -45 -40 -39 -53
-92 -57 -251 -3 -77 -8 -160 -12 -185 l-8 -45 -8 60 c-31 245 -140 450 -384
714 -48 53 -132 152 -187 221 -54 69 -124 157 -154 195 -107 132 -188 240
-250 333 -35 52 -64 92 -66 90 -5 -5 39 -262 64 -373 11 -49 27 -146 37 -215
9 -69 22 -145 30 -170 7 -24 12 -46 10 -48 -6 -5 -41 49 -74 113 -65 131 -162
513 -202 800 -28 203 -54 350 -95 535 -36 167 -49 253 -39 263 8 8 60 -39 209
-188z m1915 -2457 c73 -23 218 -94 296 -143 29 -19 87 -50 130 -71 61 -30 100
-59 169 -127 l90 -88 -80 4 c-50 3 -103 13 -140 26 -52 20 -77 23 -200 22
-134 -1 -321 -22 -368 -41 -20 -8 -19 -9 9 -9 33 -1 241 -41 313 -61 65 -17
43 -23 -44 -11 -139 20 -272 14 -431 -19 -80 -16 -150 -32 -155 -36 -18 -11
-8 12 19 41 15 17 92 63 175 104 132 66 187 101 160 101 -5 0 -53 -13 -106
-29 -54 -16 -97 -27 -97 -24 0 2 11 19 25 37 39 51 62 113 85 226 11 58 23
111 25 118 5 14 27 11 125 -20z m23 -567 c59 -65 82 -182 56 -272 -15 -49 -61
-105 -118 -140 -40 -26 -54 -29 -129 -29 -67 0 -94 5 -129 22 -114 57 -156
203 -87 300 41 57 184 138 262 148 104 13 107 13 145 -29z m99 1 c37 -53 62
-134 54 -180 -22 -140 -73 -211 -194 -269 -80 -38 -202 -58 -216 -34 -5 8 13
11 61 11 83 0 144 26 221 95 65 58 93 112 100 190 5 70 -14 118 -75 185 l-35
40 28 0 c22 0 36 -10 56 -38z m33 17 c11 -17 -1 -21 -15 -4 -8 9 -8 15 -2 15
6 0 14 -5 17 -11z m91 -50 c19 -53 16 -149 -7 -225 -27 -89 -63 -160 -85 -168
-17 -6 -17 -6 -1 11 9 10 29 45 44 78 25 55 28 71 28 175 0 63 -4 128 -9 144
-13 42 14 29 30 -15z m59 -102 c0 -102 -3 -117 -28 -169 -15 -31 -35 -62 -44
-69 -13 -11 -12 -6 4 26 36 72 56 179 50 267 -4 60 -2 77 6 69 7 -7 12 -53 12
-124z m233 120 c9 -10 3 -26 -22 -63 -18 -27 -42 -56 -52 -64 -16 -14 -17 -13
-9 5 9 24 37 105 41 123 4 16 29 16 42 -1z m-193 -33 c19 -46 19 -95 1 -139
-20 -48 -25 -44 -13 9 8 34 6 59 -5 105 -17 67 -7 82 17 25z m-135 -121 c0
-108 -65 -238 -147 -295 -51 -34 -128 -58 -188 -57 -36 1 -34 2 24 14 69 15
174 77 215 126 67 79 93 185 74 294 l-7 40 14 -30 c8 -16 14 -58 15 -92z m-80
6 c0 -38 -28 -144 -36 -136 -3 3 0 24 6 47 13 48 16 124 7 160 -6 20 -4 19 8
-5 8 -16 14 -46 15 -66z m510 2 c-25 -22 -68 -65 -95 -98 -42 -49 -45 -55 -20
-39 90 58 150 89 238 121 54 19 102 35 106 35 13 0 31 -140 31 -236 0 -86 -14
-140 -47 -176 -13 -14 -32 -18 -89 -18 l-73 0 16 45 c8 25 28 56 46 71 54 43
97 83 97 89 0 3 -24 -7 -52 -21 -29 -15 -76 -35 -105 -45 -30 -10 -94 -43
-145 -74 l-91 -56 -164 -5 c-89 -3 -163 -4 -163 -1 0 2 36 28 80 57 44 29 80
54 80 56 0 3 -32 -6 -110 -31 -32 -10 -27 -5 40 41 30 21 72 53 92 72 21 19
58 49 82 66 24 17 59 43 78 58 34 27 198 128 208 128 3 0 -15 -18 -40 -39z
m-1081 -31 c-13 -57 -4 -105 27 -152 25 -39 19 -52 -9 -20 -45 50 -64 174 -31
207 22 22 24 16 13 -35z m-38 -132 c11 -20 11 -22 -3 -10 -20 16 -43 107 -32
130 5 12 10 -1 15 -40 5 -32 14 -68 20 -80z m-46 18 c7 -16 6 -17 -13 -7 -15
8 -22 21 -22 40 0 39 14 48 21 14 4 -15 10 -36 14 -47z m-55 24 c0 -5 -5 -10
-11 -10 -5 0 -7 5 -4 10 3 6 8 10 11 10 2 0 4 -4 4 -10z m-754 -252 c-1 -101
25 -151 101 -200 52 -33 192 -102 329 -163 54 -24 214 -125 214 -135 0 -4 -29
-38 -64 -77 -35 -39 -72 -85 -82 -102 -14 -25 -23 -29 -42 -24 -24 6 -24 5 -7
-20 15 -24 15 -27 0 -51 -14 -21 -20 -24 -37 -15 -28 15 -35 3 -13 -21 25 -28
10 -38 -18 -12 -34 32 -42 27 -17 -13 19 -31 20 -36 5 -41 -9 -4 -31 4 -53 20
-48 34 -57 13 -12 -27 48 -42 33 -64 -80 -121 -70 -35 -103 -46 -139 -46 -98
0 -164 -18 -277 -76 -129 -65 -170 -73 -303 -55 -296 41 -435 92 -377 140 9 8
17 45 21 109 6 85 19 185 40 317 5 33 3 44 -16 64 -23 24 -213 121 -239 121
-31 0 8 18 74 35 37 9 101 30 141 46 40 16 131 45 202 65 227 63 255 76 369
166 154 121 247 187 265 188 13 0 16 -13 15 -72z m-1053 -482 c114 -36 197
-78 197 -100 0 -26 -151 -82 -255 -95 -72 -9 -70 -27 14 -108 43 -42 72 -80
77 -98 l7 -30 -34 32 c-19 17 -65 46 -102 64 -74 35 -138 98 -189 187 -37 63
-36 85 7 117 29 23 127 61 160 64 6 0 58 -15 118 -33z m1745 -216 c11 -42 12
-96 5 -240 l-8 -185 -23 50 c-32 69 -82 250 -82 297 0 45 24 108 48 126 30 22
46 9 60 -48z m119 32 c11 -15 24 -52 28 -82 4 -30 18 -104 31 -165 23 -107 23
-111 5 -135 -26 -36 -77 -34 -104 2 -18 24 -21 42 -20 126 1 104 21 282 33
282 3 0 16 -13 27 -28z m-253 -179 c21 -129 19 -170 -11 -190 -19 -13 -24 -12
-42 6 -24 24 -27 73 -11 184 10 69 24 107 38 107 5 0 16 -48 26 -107z m400 40
c40 -18 61 -64 53 -111 -17 -94 -42 -202 -47 -202 -9 0 -40 91 -40 116 0 11
-9 56 -20 98 -14 57 -17 83 -9 97 12 23 19 24 63 2z m336 -33 c12 -22 -2 -159
-23 -228 l-13 -43 -17 35 c-23 50 -42 202 -28 232 14 31 65 34 81 4z m-115
-64 c11 -110 -14 -176 -65 -176 -56 0 -75 49 -65 166 l7 84 58 0 58 0 7 -74z
m282 0 c19 -77 24 -130 14 -145 -4 -7 -28 -17 -51 -21 -38 -7 -46 -5 -67 16
-21 21 -23 32 -23 117 0 51 2 96 5 99 3 3 29 0 58 -6 51 -11 52 -12 64 -60z
m84 24 c13 -7 19 -21 18 -43 -1 -48 -26 -154 -32 -137 -8 22 -37 160 -37 176
0 17 24 18 51 4z m-1104 -82 c-4 -46 -7 -100 -7 -120 0 -52 -15 -48 -45 12
-27 53 -32 99 -14 133 13 24 49 56 63 57 5 0 6 -36 3 -82z m1193 46 c13 -33
13 -91 0 -99 -23 -14 -40 17 -40 71 0 42 3 54 15 54 9 0 20 -12 25 -26z m119
-24 c37 -18 39 -21 31 -52 -18 -75 -25 -80 -71 -47 -24 17 -29 27 -29 63 0 63
8 67 69 36z m-1409 -86 c0 -8 -9 -14 -20 -14 -22 0 -26 10 -8 28 13 13 28 7
28 -14z"/>
<path d="M2456 7101 c-19 -30 106 -242 129 -219 3 3 -17 49 -45 103 -27 54
-50 104 -50 112 0 15 -26 18 -34 4z"/>
<path d="M3379 5972 c10 -19 111 -109 153 -136 25 -16 28 -16 34 -3 9 23 0 33
-89 98 -83 61 -116 75 -98 41z"/>
<path d="M2971 4843 c19 -29 40 -53 47 -53 19 0 1 28 -43 70 l-37 35 33 -52z"/>
<path d="M2941 4808 c21 -40 50 -78 60 -78 20 0 7 38 -24 68 -39 37 -52 41
-36 10z"/>
<path d="M5284 3929 c-110 -59 -242 -146 -343 -228 -55 -44 -103 -86 -106 -91
-14 -23 19 -7 68 31 60 49 161 99 197 99 14 0 50 7 80 15 30 8 59 15 63 15 9
0 3 -82 -15 -188 -12 -74 -11 -72 -186 -160 -94 -47 -249 -137 -291 -169 -2
-2 -1 -6 3 -10 3 -4 44 12 89 34 45 23 116 51 157 63 41 12 117 35 168 51 51
16 102 29 115 29 12 0 59 9 104 21 96 26 104 36 71 103 -26 54 -53 66 -93 40
-26 -17 -28 -17 -41 1 -16 22 -12 61 22 197 42 171 31 196 -62 147z"/>
<path d="M4484 3877 c-68 -73 -115 -138 -112 -154 3 -16 4 -16 20 0 26 27 131
178 126 182 -2 3 -18 -10 -34 -28z"/>
<path d="M2242 3173 c3 -93 11 -128 26 -119 4 2 6 52 4 110 -3 88 -6 106 -19
106 -13 0 -15 -14 -11 -97z"/>
<path d="M5493 3233 c-29 -81 -49 -123 -87 -181 -96 -145 -249 -284 -403 -368
-40 -21 -73 -45 -73 -52 0 -15 30 -27 121 -48 67 -15 71 -15 112 5 23 11 63
40 89 63 40 36 53 57 78 127 16 47 49 115 71 153 37 62 119 264 119 294 0 21
-20 26 -27 7z"/>
<path d="M2314 3225 c-8 -20 4 -65 16 -65 6 0 10 18 10 40 0 40 -15 54 -26 25z"/>
<path d="M4780 3150 c0 -18 261 -270 285 -276 38 -9 72 3 113 41 36 34 36 36
18 50 -11 8 -40 15 -64 15 -35 0 -61 10 -126 49 -145 87 -226 130 -226 121z"/>
<path d="M6557 2954 c-14 -47 -29 -312 -19 -330 10 -17 11 -17 16 6 7 32 36
262 36 287 0 11 -6 28 -14 38 -13 18 -14 18 -19 -1z"/>
<path d="M6602 2759 c-16 -86 -15 -134 1 -148 8 -6 17 -8 20 -4 9 9 8 128 -2
178 l-7 40 -12 -66z"/>
<path d="M5648 2371 c-152 -122 -186 -157 -170 -173 8 -8 21 -4 52 17 75 52
271 255 246 255 -3 0 -61 -45 -128 -99z"/>
<path d="M5859 2406 c-116 -60 -154 -93 -144 -126 11 -36 38 -21 118 65 43 47
77 85 75 85 -2 0 -24 -11 -49 -24z"/>
<path d="M4363 2178 c-34 -7 -43 -14 -43 -30 0 -16 4 -19 23 -14 69 20 76 19
70 -4 -6 -21 -4 -22 23 -15 16 4 53 13 83 19 67 14 80 36 22 36 -22 0 -43 5
-46 10 -8 12 -75 11 -132 -2z"/>
<path d="M2829 3917 c-57 -16 -98 -48 -149 -116 -49 -65 -53 -116 -15 -190 28
-55 74 -84 163 -101 43 -8 61 -7 90 6 128 53 190 160 157 270 -14 48 -55 108
-83 123 -32 16 -116 20 -163 8z m129 -43 c58 -29 86 -68 97 -132 9 -58 -22
-120 -87 -172 -58 -46 -101 -52 -180 -24 -100 34 -136 139 -83 243 52 103 150
136 253 85z"/>
<path d="M2779 3857 c-40 -27 -68 -96 -69 -172 0 -79 46 -125 127 -125 54 0
141 53 171 105 30 52 26 123 -9 162 -53 57 -159 71 -220 30z m159 -19 c36 -11
62 -51 62 -95 -1 -38 -28 -84 -73 -123 -35 -30 -41 -32 -93 -28 -79 7 -96 27
-96 112 1 136 62 177 200 134z"/>
<path d="M2805 3828 c-33 -19 -44 -41 -45 -89 0 -66 32 -99 95 -99 38 0 52 5
75 28 37 37 49 96 25 122 -39 43 -110 61 -150 38z m88 -19 c30 -16 37 -28 37
-71 0 -28 -6 -42 -27 -58 -33 -26 -68 -20 -100 16 -31 34 -29 60 6 95 32 31
50 35 84 18z"/>
<path d="M2825 3775 c-14 -13 -25 -31 -25 -40 0 -21 36 -55 58 -55 47 0 73 88
33 110 -29 15 -39 13 -66 -15z m69 -22 c8 -21 -11 -53 -32 -53 -21 0 -42 18
-42 36 0 37 61 51 74 17z"/>
<path d="M2845 3751 c-8 -15 3 -31 21 -31 9 0 14 7 12 17 -4 20 -24 28 -33 14z"/>
<path d="M1600 2790 c0 -55 4 -100 9 -100 11 0 26 174 16 189 -17 29 -25 2
-25 -89z"/>
<path d="M1546 2773 c-9 -57 -7 -103 4 -103 6 0 10 15 10 33 0 17 3 49 6 70 4
22 3 37 -3 37 -6 0 -13 -17 -17 -37z"/>
<path d="M3320 2161 c-59 -17 -734 -350 -726 -358 2 -2 34 4 72 13 128 30 210
8 474 -129 183 -95 342 -152 468 -169 97 -14 208 -1 355 39 98 27 267 43 267
26 0 -11 -68 -31 -339 -98 -102 -25 -187 -48 -190 -52 -3 -3 5 -3 19 1 14 3
106 13 205 21 383 33 436 44 585 131 62 36 108 53 212 79 73 18 169 49 213 69
l80 37 -65 -6 c-221 -19 -274 -18 -364 5 -182 45 -347 113 -529 219 -167 95
-223 121 -340 152 -148 40 -302 48 -397 20z m30 -155 c0 -2 -15 -27 -34 -55
-51 -76 -64 -156 -40 -243 6 -21 -4 -22 -28 -4 -43 32 -27 150 33 242 23 35
48 64 55 64 8 0 14 -2 14 -4z m64 -41 c-25 -25 -54 -65 -64 -88 -27 -57 -27
-161 -1 -203 19 -31 19 -32 -1 -26 -49 12 -68 152 -31 232 30 65 89 130 119
130 22 0 20 -3 -22 -45z m74 -13 c-78 -60 -101 -100 -95 -170 6 -84 65 -145
154 -158 95 -14 213 51 254 141 24 51 24 82 0 129 -18 33 -18 37 -3 31 9 -4
24 -9 33 -12 33 -10 39 -133 10 -191 -26 -50 -55 -76 -126 -109 -48 -22 -74
-28 -131 -28 -61 0 -77 4 -120 30 -112 70 -132 180 -55 295 37 55 95 100 121
93 15 -4 7 -14 -42 -51z m-247 2 c-35 -55 -55 -132 -48 -185 5 -42 2 -46 -25
-25 -22 16 -25 111 -4 159 17 41 69 97 90 97 12 0 9 -10 -13 -46z m-103 -21
c-12 -28 -22 -70 -22 -100 -1 -48 -3 -52 -21 -47 -33 10 -45 25 -45 56 0 59
52 127 107 138 1 0 -8 -21 -19 -47z m-113 0 c-4 -10 -12 -31 -19 -48 -6 -16
-12 -32 -13 -34 -4 -6 -73 32 -73 40 0 11 35 36 65 47 43 15 48 14 40 -5z
m707 -10 c57 -51 63 -141 12 -194 -31 -32 -119 -69 -165 -69 -34 0 -95 24
-121 47 -27 24 -39 82 -27 126 12 44 39 72 94 99 52 25 176 20 207 -9z m202
-59 c20 -8 21 -63 1 -110 -20 -48 -73 -121 -103 -140 -33 -22 -37 -12 -8 23
42 50 73 119 80 177 4 31 9 56 11 56 2 0 10 -3 19 -6z m78 -83 c-4 -69 -60
-161 -98 -161 -11 0 -9 8 12 35 32 42 53 98 54 143 0 26 4 33 18 30 13 -3 16
-12 14 -47z m68 -23 c0 -24 -40 -108 -51 -108 -4 0 -14 -2 -21 -5 -9 -4 0 23
21 69 34 72 51 87 51 44z m50 -17 c0 -5 3 -16 6 -24 5 -15 -27 -57 -45 -57 -5
0 -1 20 8 45 14 41 31 60 31 36z"/>
<path d="M3538 1910 c-27 -16 -58 -75 -58 -109 0 -41 46 -90 87 -93 83 -4 115
8 143 55 29 47 26 93 -9 128 -26 25 -36 29 -88 29 -32 0 -66 -5 -75 -10z m125
-39 c31 -26 37 -47 26 -80 -13 -38 -35 -51 -84 -51 -88 0 -122 57 -70 119 36
42 88 47 128 12z"/>
<path d="M3551 1856 c-28 -30 -24 -63 10 -89 34 -24 83 -16 105 19 44 67 -59
129 -115 70z m99 -26 c20 -38 -36 -65 -75 -36 -23 16 -14 43 17 55 28 10 45 4
58 -19z"/>
<path d="M3600 1825 c0 -8 7 -15 15 -15 8 0 15 7 15 15 0 8 -7 15 -15 15 -8 0
-15 -7 -15 -15z"/>
<path d="M2001 1716 c17 -15 143 -76 299 -146 102 -45 268 -123 370 -173 102
-50 189 -93 194 -95 5 -3 -57 67 -138 155 -81 88 -158 165 -171 171 -35 16
-157 39 -265 51 -52 6 -131 17 -175 25 -78 15 -122 20 -114 12z"/>
<path d="M2040 1573 c0 -20 338 -398 347 -389 2 2 -3 19 -11 37 -8 19 -28 72
-45 118 l-30 83 27 -23 c15 -13 55 -50 90 -83 128 -124 40 -6 -124 164 -29 30
-56 52 -59 48 -4 -4 0 -31 9 -61 22 -76 21 -76 -26 -31 -59 56 -164 144 -172
144 -3 0 -6 -3 -6 -7z"/>
</g>
</svg>
