<?xml version="1.0" standalone="no"?>
<!DOCTYPE svg PUBLIC "-//W3C//DTD SVG 20010904//EN"
 "http://www.w3.org/TR/2001/REC-SVG-20010904/DTD/svg10.dtd">
<svg version="1.0" xmlns="http://www.w3.org/2000/svg"
 width="1440.000000pt" height="1440.000000pt" viewBox="0 0 1440.000000 1440.000000"
 preserveAspectRatio="xMidYMid meet">

<g transform="translate(0.000000,1440.000000) scale(0.100000,-0.100000)"
fill="#000000" stroke="none">
<path d="M7010 11999 c-207 -20 -424 -50 -535 -74 -49 -11 -237 -55 -275 -65
-140 -37 -518 -171 -588 -210 -9 -5 -53 -26 -96 -46 -44 -21 -107 -53 -140
-72 -34 -19 -81 -46 -106 -60 -66 -37 -261 -166 -289 -191 -13 -11 -28 -21
-32 -21 -4 0 -14 -6 -21 -13 -7 -7 -31 -26 -53 -42 -22 -17 -42 -32 -45 -35
-3 -3 -39 -34 -80 -70 -117 -100 -284 -266 -373 -370 -45 -52 -84 -97 -88
-100 -5 -5 -28 -35 -132 -175 -25 -33 -54 -71 -64 -85 -30 -40 -158 -240 -189
-295 -15 -27 -43 -77 -61 -110 -35 -63 -112 -218 -158 -320 -93 -204 -195
-520 -235 -725 -5 -25 -16 -81 -25 -125 -70 -343 -84 -852 -34 -1240 11 -85
55 -336 69 -395 26 -104 42 -168 49 -190 5 -14 14 -45 21 -70 48 -169 127
-373 221 -566 62 -127 62 -136 6 -115 -51 20 -211 41 -305 41 -479 0 -893
-302 -1055 -770 -50 -145 -62 -222 -61 -400 0 -138 4 -180 23 -254 74 -294
224 -507 460 -656 66 -41 81 -74 81 -173 0 -41 4 -87 9 -103 5 -16 14 -54 21
-84 31 -132 124 -291 250 -423 109 -115 196 -171 370 -237 149 -57 199 -65
405 -64 169 1 202 4 300 27 246 59 450 137 526 201 18 15 43 26 60 26 34 0 79
-39 79 -67 0 -60 241 -326 370 -408 101 -65 238 -129 330 -153 105 -29 439
-41 520 -19 190 51 340 119 490 221 86 59 340 307 365 357 9 19 31 49 48 66
33 35 49 63 128 221 28 57 56 101 62 99 10 -3 55 -80 125 -212 14 -27 45 -75
67 -105 22 -30 48 -68 58 -83 41 -63 275 -286 368 -351 53 -36 99 -66 102 -66
3 0 32 -15 64 -33 60 -34 227 -95 318 -116 78 -18 398 -17 465 2 139 38 189
61 313 145 71 48 145 97 164 108 45 27 140 121 159 156 7 15 35 51 62 82 27
30 59 75 72 100 16 32 29 46 44 46 12 0 66 -22 121 -49 200 -98 302 -133 515
-176 96 -19 393 -23 470 -7 85 18 175 44 186 53 6 5 42 20 80 33 85 29 136 57
216 120 64 50 155 149 204 221 91 135 153 318 169 504 4 40 9 80 12 87 3 8 43
42 89 74 46 33 98 72 115 87 69 61 168 176 169 197 0 5 6 17 14 25 34 38 91
170 136 316 49 159 32 469 -36 672 -93 276 -318 534 -575 657 -42 20 -81 36
-88 36 -6 0 -19 4 -29 9 -22 12 -111 36 -188 50 -85 16 -243 13 -349 -5 -153
-26 -165 -27 -165 -16 0 6 27 64 59 129 33 65 69 141 81 168 12 28 25 59 30
70 15 34 69 182 84 227 28 89 64 215 76 263 6 28 15 66 20 85 63 248 102 595
102 910 0 311 -24 539 -88 825 -39 177 -107 408 -149 510 -7 17 -29 71 -48
120 -56 145 -155 355 -221 470 -19 33 -41 71 -49 85 -44 79 -61 107 -83 135
-13 18 -24 35 -24 38 0 3 -28 46 -61 94 -208 298 -479 579 -809 841 -85 68
-339 235 -475 314 -93 54 -369 186 -475 228 -58 23 -114 45 -125 50 -22 10
-203 68 -250 80 -295 78 -469 108 -730 130 -147 12 -408 11 -535 -1z m445
-389 c180 -13 350 -42 530 -91 39 -11 97 -27 130 -36 132 -35 256 -77 385
-130 203 -82 520 -244 520 -265 0 -4 7 -8 16 -8 24 0 266 -172 395 -280 41
-35 219 -202 303 -286 45 -45 108 -117 140 -159 21 -27 41 -52 45 -55 8 -7
135 -177 197 -265 43 -61 68 -101 121 -190 104 -176 182 -331 233 -465 18 -47
38 -98 45 -115 49 -121 123 -386 157 -565 10 -54 14 -78 38 -255 8 -53 13
-202 13 -365 1 -343 -14 -476 -103 -890 -31 -148 -132 -446 -194 -575 -19 -38
-53 -108 -75 -155 -50 -104 -108 -210 -127 -231 -8 -8 -14 -19 -14 -23 0 -6
-49 -86 -60 -96 -3 -3 -9 -12 -15 -21 -79 -130 -233 -304 -368 -417 -123 -103
-183 -211 -179 -322 3 -78 30 -230 54 -308 76 -248 247 -441 431 -488 100 -26
192 -14 391 51 223 73 300 74 434 8 108 -53 216 -178 246 -284 63 -228 35
-410 -90 -586 -25 -35 -48 -63 -52 -63 -4 0 -25 -18 -47 -40 -22 -21 -44 -39
-48 -40 -5 0 -34 -16 -65 -35 -97 -59 -146 -70 -327 -69 -144 1 -169 4 -250
29 -118 35 -181 59 -290 110 -49 23 -105 48 -123 55 -18 7 -51 27 -74 45 l-41
33 -2 153 c-1 85 -8 183 -14 219 -7 36 -17 92 -23 125 -11 61 -50 199 -70 245
-6 14 -14 34 -18 45 -18 50 -112 233 -133 258 -28 37 -116 135 -143 162 -159
156 -230 213 -283 227 -77 20 -172 3 -193 -35 -20 -38 -13 -127 16 -192 41
-92 64 -132 141 -238 142 -200 146 -206 188 -287 106 -203 149 -447 116 -649
-12 -76 -22 -107 -54 -176 -13 -27 -31 -66 -40 -85 -62 -137 -150 -244 -255
-313 -66 -44 -190 -107 -209 -107 -6 0 -29 -10 -52 -21 -22 -12 -53 -22 -67
-21 -111 4 -215 15 -257 28 -81 25 -252 111 -329 167 -102 74 -234 209 -281
288 -5 9 -28 43 -49 75 -52 79 -146 264 -146 290 0 11 -4 24 -9 30 -12 12 -56
143 -71 214 -28 132 -32 183 -38 505 l-7 340 -30 60 c-24 48 -38 64 -75 82
-55 27 -149 31 -206 7 -47 -19 -94 -61 -94 -84 0 -9 -6 -22 -12 -28 -10 -10
-14 -104 -19 -370 -4 -236 -10 -367 -17 -385 -7 -16 -12 -41 -12 -57 0 -15 -6
-50 -14 -76 -8 -27 -21 -74 -29 -104 -23 -82 -54 -165 -98 -259 -40 -85 -128
-232 -158 -262 -9 -9 -32 -36 -51 -59 -71 -88 -163 -171 -260 -237 -67 -46
-195 -113 -214 -113 -9 0 -24 -4 -34 -9 -52 -27 -79 -31 -207 -33 -132 -2
-144 -1 -210 25 -38 15 -86 36 -106 47 -20 11 -49 26 -63 34 -15 7 -55 39 -89
71 -34 31 -78 72 -98 90 -39 36 -115 178 -149 280 -12 33 -28 83 -38 110 -13
40 -17 86 -17 230 1 216 10 259 100 450 42 89 73 136 194 305 187 259 223 425
102 476 -54 23 -147 4 -198 -40 -7 -6 -46 -38 -86 -71 -39 -32 -99 -90 -132
-128 -33 -37 -65 -74 -71 -80 -34 -39 -109 -157 -153 -243 -118 -233 -170
-447 -177 -728 -4 -175 2 -159 -77 -211 -21 -14 -43 -25 -49 -25 -6 0 -47 -18
-92 -39 -94 -46 -220 -91 -251 -91 -13 0 -49 -12 -81 -27 -58 -26 -63 -27
-235 -25 -189 2 -195 3 -318 65 -63 31 -158 114 -197 171 -10 15 -24 34 -31
41 -20 21 -83 151 -83 172 0 10 -5 24 -11 30 -15 15 -13 247 2 309 22 90 85
201 139 247 50 42 119 87 133 87 9 0 18 4 21 8 10 16 143 35 197 28 28 -4 97
-23 153 -42 192 -68 232 -76 337 -71 86 4 106 9 180 44 243 114 409 436 409
796 0 82 -2 91 -31 133 -17 25 -37 48 -45 51 -8 3 -14 9 -14 14 0 6 -150 157
-179 179 -14 11 -158 187 -176 215 -10 16 -27 39 -38 50 -10 11 -28 37 -38 58
-11 21 -37 64 -57 95 -54 84 -163 291 -225 432 -14 30 -35 75 -46 99 -12 25
-21 55 -21 67 0 12 -4 24 -8 26 -10 3 -82 224 -110 338 -38 149 -44 176 -64
265 -135 622 -67 1356 182 1976 67 167 156 343 257 509 129 214 241 368 385
535 92 106 333 342 423 415 44 35 82 67 85 70 12 14 239 170 285 195 28 16 57
34 65 41 8 7 85 47 170 89 85 42 163 81 173 86 105 55 449 168 627 208 25 5
65 14 90 20 258 59 590 82 885 61z m-3815 -5764 c78 -19 151 -52 253 -113 49
-29 92 -53 98 -53 5 0 9 -4 9 -10 0 -5 5 -10 11 -10 9 0 205 -135 219 -150 3
-3 46 -35 95 -70 105 -76 134 -99 145 -121 11 -20 -15 -148 -43 -208 -22 -50
-63 -109 -87 -128 -39 -31 -99 -25 -310 27 -47 12 -110 26 -140 32 -69 13
-288 3 -355 -16 -163 -46 -309 -135 -391 -238 -25 -32 -50 -58 -55 -58 -19 0
-88 -100 -106 -152 -9 -28 -20 -22 -78 38 -52 53 -112 159 -152 269 -24 67
-29 257 -8 370 55 307 316 560 625 605 69 10 198 4 270 -14z m7517 3 c63 -15
171 -58 205 -81 14 -10 29 -18 33 -18 4 0 28 -17 53 -37 249 -200 359 -565
256 -848 -47 -130 -95 -216 -141 -249 -23 -17 -42 -37 -43 -43 0 -7 -4 -13 -9
-13 -11 0 -51 53 -51 68 0 6 -3 12 -7 14 -5 2 -15 15 -23 29 -8 15 -43 56 -77
92 -33 36 -65 72 -70 80 -13 24 -212 146 -248 153 -5 1 -39 11 -75 22 -36 11
-108 25 -160 32 -128 15 -243 -1 -505 -69 -22 -6 -63 -11 -92 -11 -44 0 -58 5
-86 29 -51 45 -108 174 -122 278 -8 60 -8 59 100 130 39 26 84 57 100 70 17
13 35 27 40 31 12 9 156 116 202 149 17 13 36 23 42 23 6 0 11 4 11 9 0 5 13
14 29 19 16 6 53 26 83 44 47 30 131 67 223 97 42 13 275 13 332 0z"/>
<path d="M5450 8483 c-360 -35 -626 -261 -711 -603 -20 -81 -17 -279 5 -365
46 -176 165 -345 311 -441 136 -90 247 -125 414 -132 154 -6 245 12 380 74
112 52 244 162 311 259 41 59 91 167 102 219 5 23 13 59 18 81 14 62 11 222
-5 300 -28 130 -84 246 -164 338 -131 149 -275 230 -471 262 -82 14 -116 16
-190 8z m28 -359 c46 -22 99 -77 117 -121 18 -43 20 -141 3 -180 -39 -89 -122
-143 -220 -143 -67 0 -115 21 -167 72 -105 103 -90 272 32 356 23 17 54 32 67
35 42 9 134 -1 168 -19z m314 -585 c101 -72 58 -239 -62 -239 -74 0 -130 61
-130 142 0 41 5 52 35 83 30 30 42 35 81 35 31 0 56 -7 76 -21z"/>
<path d="M8860 8475 c-409 -61 -696 -410 -667 -812 9 -118 28 -190 82 -299 91
-185 254 -320 475 -395 83 -27 272 -37 374 -19 272 48 505 251 595 517 34 99
44 177 39 292 -14 293 -176 530 -446 653 -85 39 -108 46 -212 63 -100 17 -126
17 -240 0z m74 -359 c25 -14 54 -38 65 -53 12 -16 24 -32 29 -38 11 -15 32
-89 32 -116 0 -37 -37 -129 -62 -156 -12 -13 -46 -35 -75 -49 -188 -93 -402
97 -328 291 23 62 97 130 162 149 42 12 134 -2 177 -28z m313 -566 c2 0 16
-14 32 -31 49 -51 53 -119 8 -170 -62 -72 -157 -64 -207 16 -34 54 -24 116 24
160 41 37 66 45 111 33 16 -4 31 -8 32 -8z"/>
<path d="M6792 7439 c-19 -6 -53 -29 -77 -53 -38 -38 -43 -50 -50 -103 -10
-88 21 -200 86 -313 26 -46 113 -131 170 -166 114 -69 288 -104 412 -83 150
25 239 69 334 165 128 130 189 340 134 461 -28 60 -86 96 -155 96 -93 0 -142
-46 -166 -154 -19 -86 -50 -140 -101 -174 -40 -27 -51 -30 -129 -30 -78 0 -89
2 -130 30 -57 39 -94 95 -111 165 -18 81 -43 125 -81 143 -46 22 -97 28 -136
16z"/>
</g>
</svg>
